<svg width="586" height="586" viewBox="0 0 586 586" fill="none" xmlns="http://www.w3.org/2000/svg">
<path d="M446.117 395.175C467.517 367.395 485.461 327.354 495.031 281.098C504.136 237.202 504.102 195.433 496.759 162.204C522.345 188.92 537.365 224.874 537.033 262.922C528.426 267.64 521.88 275.948 519.754 286.216C517.56 296.749 520.451 307.183 526.765 315.059C511.878 352.276 482.238 380.786 446.084 395.175H446.117Z" fill="url(#paint0_linear_284_73)"/>
<path d="M547.766 324.164C539.492 322.469 532.68 317.718 528.16 311.371C523.276 304.492 521.182 295.72 523.01 286.881C524.771 278.274 530.021 271.23 536.966 266.877C543.679 262.557 552.052 260.796 560.526 262.557C577.739 266.112 588.804 282.827 585.315 299.84C581.759 316.82 564.945 327.753 547.766 324.197V324.164Z" fill="url(#paint1_linear_284_73)"/>
<path d="M328.983 473.53C363.741 469.011 404.746 453.393 444.223 427.474C481.706 402.851 511.213 373.31 529.523 344.633C528.725 381.617 513.905 417.671 486.79 444.321C477.353 441.563 466.885 442.826 458.113 448.575C449.108 454.489 443.791 463.926 442.694 473.929C405.843 489.746 364.738 488.915 329.017 473.53H328.983Z" fill="url(#paint2_linear_284_73)"/>
<path d="M451.102 495.195C446.449 488.15 444.987 479.976 446.283 472.3C447.679 463.993 452.397 456.283 459.941 451.332C467.284 446.514 475.99 445.218 483.965 447.046C491.774 448.74 498.919 453.426 503.67 460.636C513.34 475.324 509.353 494.962 494.831 504.532C480.31 514.036 460.705 509.849 451.068 495.195H451.102Z" fill="url(#paint3_linear_284_73)"/>
<path d="M190.783 446.115C218.562 467.515 258.604 485.459 304.859 495.029C348.755 504.134 390.524 504.1 423.754 496.757C397.037 522.343 361.083 537.363 323.036 537.031C318.317 528.424 310.01 521.878 299.742 519.751C289.208 517.558 278.774 520.449 270.899 526.763C233.682 511.876 205.171 482.235 190.783 446.082V446.115Z" fill="url(#paint4_linear_284_73)"/>
<path d="M261.794 547.764C263.489 539.49 268.241 532.678 274.587 528.159C281.466 523.274 290.238 521.181 299.077 523.008C307.684 524.77 314.728 530.02 319.081 536.965C323.401 543.677 325.162 552.051 323.401 560.524C319.846 577.737 303.131 588.803 286.118 585.313C269.138 581.758 258.205 564.944 261.761 547.764H261.794Z" fill="url(#paint5_linear_284_73)"/>
<path d="M112.428 329.015C116.947 363.773 132.565 404.778 158.484 444.255C183.107 481.738 212.648 511.245 241.324 529.555C204.34 528.757 168.286 513.937 141.636 486.822C144.394 477.385 143.132 466.917 137.383 458.145C131.468 449.14 122.031 443.823 112.029 442.726C96.2118 405.875 97.0426 364.77 112.428 329.049V329.015Z" fill="url(#paint6_linear_284_73)"/>
<path d="M90.7621 451.1C97.8067 446.448 105.981 444.985 113.657 446.281C121.964 447.677 129.674 452.396 134.625 459.939C139.443 467.282 140.739 475.988 138.911 483.964C137.217 491.772 132.531 498.917 125.321 503.669C110.633 513.338 90.9947 509.351 81.4247 494.83C71.9211 480.308 76.108 460.703 90.7621 451.066V451.1Z" fill="url(#paint7_linear_284_73)"/>
<path d="M139.842 190.814C118.442 218.594 100.498 258.635 90.9282 304.89C81.8234 348.786 81.8566 390.556 89.2003 423.785C63.6137 397.069 48.594 361.115 48.9263 323.067C57.5327 318.348 64.0789 310.041 66.2056 299.773C68.3987 289.239 65.5078 278.805 59.1942 270.93C74.0809 233.713 103.722 205.202 139.875 190.814H139.842Z" fill="url(#paint8_linear_284_73)"/>
<path d="M38.1933 261.792C46.4674 263.486 53.2794 268.238 57.7986 274.585C62.6833 281.463 64.7768 290.236 62.9492 299.075C61.188 307.681 55.9378 314.726 48.9928 319.079C42.2805 323.399 33.9067 325.16 25.4332 323.399C8.22037 319.843 -2.84502 303.129 0.644069 286.116C4.19961 269.135 21.0137 258.203 38.1933 261.758V261.792Z" fill="url(#paint9_linear_284_73)"/>
<path d="M256.942 112.46C222.184 116.979 181.179 132.597 141.703 158.516C104.22 183.139 74.7122 212.679 56.4028 241.356C57.2003 204.372 72.0206 168.318 99.1358 141.668C108.573 144.426 119.04 143.164 127.813 137.415C136.818 131.5 142.135 122.063 143.231 112.061C180.083 96.2438 221.187 97.0745 256.909 112.46H256.942Z" fill="url(#paint10_linear_284_73)"/>
<path d="M134.857 90.7605C139.509 97.8051 140.972 105.98 139.676 113.656C138.28 121.963 133.561 129.672 126.018 134.623C118.675 139.441 109.969 140.737 101.993 138.91C94.1846 137.215 87.0403 132.53 82.2885 125.319C72.6187 110.632 76.6062 90.9931 91.1275 81.423C105.649 71.9194 125.254 76.1063 134.891 90.7605H134.857Z" fill="url(#paint11_linear_284_73)"/>
<path d="M395.144 139.841C367.364 118.441 327.322 100.497 281.067 90.9272C237.171 81.8223 195.402 81.8555 162.172 89.1992C188.889 63.6126 224.843 48.5929 262.891 48.9252C267.609 57.5316 275.916 64.0778 286.184 66.2045C296.718 68.3976 307.152 65.5067 315.027 59.1931C352.244 74.0799 380.755 103.72 395.144 139.874V139.841Z" fill="url(#paint12_linear_284_73)"/>
<path d="M324.165 38.1917C322.471 46.4658 317.719 53.2778 311.372 57.797C304.494 62.6818 295.721 64.7752 286.882 62.9476C278.276 61.1864 271.231 55.9362 266.878 48.9912C262.558 42.2789 260.797 33.9051 262.558 25.4316C266.114 8.21879 282.828 -2.84656 299.842 0.64252C316.822 4.19806 327.754 21.0121 324.199 38.1917H324.165Z" fill="url(#paint13_linear_284_73)"/>
<path d="M473.498 256.974C468.979 222.216 453.361 181.211 427.442 141.734C402.819 104.251 373.279 74.7437 344.602 56.4344C381.586 57.2319 417.64 72.0522 444.29 99.1673C441.532 108.604 442.794 119.072 448.543 127.844C454.458 136.849 463.895 142.166 473.897 143.263C489.714 180.114 488.884 221.219 473.498 256.94V256.974Z" fill="url(#paint14_linear_284_73)"/>
<path d="M495.197 134.855C488.152 139.508 479.978 140.97 472.302 139.674C463.995 138.278 456.285 133.56 451.334 126.016C446.516 118.673 445.22 109.967 447.048 101.992C448.742 94.1827 453.428 87.0384 460.639 82.2866C475.326 72.6168 494.964 76.6044 504.534 91.1256C514.038 105.647 509.851 125.252 495.197 134.889V134.855Z" fill="url(#paint15_linear_284_73)"/>
<defs>
<linearGradient id="paint0_linear_284_73" x1="491.575" y1="395.175" x2="491.575" y2="162.204" gradientUnits="userSpaceOnUse">
<stop stop-color="white"/>
<stop offset="0.11" stop-color="white" stop-opacity="0.98"/>
<stop offset="0.24" stop-color="white" stop-opacity="0.93"/>
<stop offset="0.37" stop-color="white" stop-opacity="0.84"/>
<stop offset="0.5" stop-color="white" stop-opacity="0.72"/>
<stop offset="0.64" stop-color="white" stop-opacity="0.56"/>
<stop offset="0.78" stop-color="white" stop-opacity="0.37"/>
<stop offset="0.91" stop-color="white" stop-opacity="0.15"/>
<stop offset="1" stop-color="white" stop-opacity="0"/>
</linearGradient>
<linearGradient id="paint1_linear_284_73" x1="554.179" y1="324.829" x2="554.179" y2="261.859" gradientUnits="userSpaceOnUse">
<stop stop-color="white"/>
<stop offset="0.11" stop-color="white" stop-opacity="0.98"/>
<stop offset="0.24" stop-color="white" stop-opacity="0.93"/>
<stop offset="0.37" stop-color="white" stop-opacity="0.84"/>
<stop offset="0.5" stop-color="white" stop-opacity="0.72"/>
<stop offset="0.64" stop-color="white" stop-opacity="0.56"/>
<stop offset="0.78" stop-color="white" stop-opacity="0.37"/>
<stop offset="0.91" stop-color="white" stop-opacity="0.15"/>
<stop offset="1" stop-color="white" stop-opacity="0"/>
</linearGradient>
<linearGradient id="paint2_linear_284_73" x1="429.27" y1="485.426" x2="429.27" y2="344.6" gradientUnits="userSpaceOnUse">
<stop stop-color="white"/>
<stop offset="0.11" stop-color="white" stop-opacity="0.98"/>
<stop offset="0.24" stop-color="white" stop-opacity="0.93"/>
<stop offset="0.37" stop-color="white" stop-opacity="0.84"/>
<stop offset="0.5" stop-color="white" stop-opacity="0.72"/>
<stop offset="0.64" stop-color="white" stop-opacity="0.56"/>
<stop offset="0.78" stop-color="white" stop-opacity="0.37"/>
<stop offset="0.91" stop-color="white" stop-opacity="0.15"/>
<stop offset="1" stop-color="white" stop-opacity="0"/>
</linearGradient>
<linearGradient id="paint3_linear_284_73" x1="477.419" y1="509.65" x2="477.419" y2="446.248" gradientUnits="userSpaceOnUse">
<stop stop-color="white"/>
<stop offset="0.11" stop-color="white" stop-opacity="0.98"/>
<stop offset="0.24" stop-color="white" stop-opacity="0.93"/>
<stop offset="0.37" stop-color="white" stop-opacity="0.84"/>
<stop offset="0.5" stop-color="white" stop-opacity="0.72"/>
<stop offset="0.64" stop-color="white" stop-opacity="0.56"/>
<stop offset="0.78" stop-color="white" stop-opacity="0.37"/>
<stop offset="0.91" stop-color="white" stop-opacity="0.15"/>
<stop offset="1" stop-color="white" stop-opacity="0"/>
</linearGradient>
<linearGradient id="paint4_linear_284_73" x1="307.285" y1="537.031" x2="307.285" y2="446.115" gradientUnits="userSpaceOnUse">
<stop stop-color="white"/>
<stop offset="0.11" stop-color="white" stop-opacity="0.98"/>
<stop offset="0.24" stop-color="white" stop-opacity="0.93"/>
<stop offset="0.37" stop-color="white" stop-opacity="0.84"/>
<stop offset="0.5" stop-color="white" stop-opacity="0.72"/>
<stop offset="0.64" stop-color="white" stop-opacity="0.56"/>
<stop offset="0.78" stop-color="white" stop-opacity="0.37"/>
<stop offset="0.91" stop-color="white" stop-opacity="0.15"/>
<stop offset="1" stop-color="white" stop-opacity="0"/>
</linearGradient>
<linearGradient id="paint5_linear_284_73" x1="292.598" y1="585.978" x2="292.598" y2="522.377" gradientUnits="userSpaceOnUse">
<stop stop-color="white"/>
<stop offset="0.11" stop-color="white" stop-opacity="0.98"/>
<stop offset="0.24" stop-color="white" stop-opacity="0.93"/>
<stop offset="0.37" stop-color="white" stop-opacity="0.84"/>
<stop offset="0.5" stop-color="white" stop-opacity="0.72"/>
<stop offset="0.64" stop-color="white" stop-opacity="0.56"/>
<stop offset="0.78" stop-color="white" stop-opacity="0.37"/>
<stop offset="0.91" stop-color="white" stop-opacity="0.15"/>
<stop offset="1" stop-color="white" stop-opacity="0"/>
</linearGradient>
<linearGradient id="paint6_linear_284_73" x1="170.945" y1="529.555" x2="170.945" y2="329.015" gradientUnits="userSpaceOnUse">
<stop stop-color="white"/>
<stop offset="0.11" stop-color="white" stop-opacity="0.98"/>
<stop offset="0.24" stop-color="white" stop-opacity="0.93"/>
<stop offset="0.37" stop-color="white" stop-opacity="0.84"/>
<stop offset="0.5" stop-color="white" stop-opacity="0.72"/>
<stop offset="0.64" stop-color="white" stop-opacity="0.56"/>
<stop offset="0.78" stop-color="white" stop-opacity="0.37"/>
<stop offset="0.91" stop-color="white" stop-opacity="0.15"/>
<stop offset="1" stop-color="white" stop-opacity="0"/>
</linearGradient>
<linearGradient id="paint7_linear_284_73" x1="108.008" y1="508.985" x2="108.008" y2="445.849" gradientUnits="userSpaceOnUse">
<stop stop-color="white"/>
<stop offset="0.11" stop-color="white" stop-opacity="0.98"/>
<stop offset="0.24" stop-color="white" stop-opacity="0.93"/>
<stop offset="0.37" stop-color="white" stop-opacity="0.84"/>
<stop offset="0.5" stop-color="white" stop-opacity="0.72"/>
<stop offset="0.64" stop-color="white" stop-opacity="0.56"/>
<stop offset="0.78" stop-color="white" stop-opacity="0.37"/>
<stop offset="0.91" stop-color="white" stop-opacity="0.15"/>
<stop offset="1" stop-color="white" stop-opacity="0"/>
</linearGradient>
<linearGradient id="paint8_linear_284_73" x1="94.3841" y1="423.752" x2="94.3841" y2="190.814" gradientUnits="userSpaceOnUse">
<stop stop-color="white"/>
<stop offset="0.11" stop-color="white" stop-opacity="0.98"/>
<stop offset="0.24" stop-color="white" stop-opacity="0.93"/>
<stop offset="0.37" stop-color="white" stop-opacity="0.84"/>
<stop offset="0.5" stop-color="white" stop-opacity="0.72"/>
<stop offset="0.64" stop-color="white" stop-opacity="0.56"/>
<stop offset="0.78" stop-color="white" stop-opacity="0.37"/>
<stop offset="0.91" stop-color="white" stop-opacity="0.15"/>
<stop offset="1" stop-color="white" stop-opacity="0"/>
</linearGradient>
<linearGradient id="paint9_linear_284_73" x1="31.78" y1="324.097" x2="31.78" y2="261.127" gradientUnits="userSpaceOnUse">
<stop stop-color="white"/>
<stop offset="0.11" stop-color="white" stop-opacity="0.98"/>
<stop offset="0.24" stop-color="white" stop-opacity="0.93"/>
<stop offset="0.37" stop-color="white" stop-opacity="0.84"/>
<stop offset="0.5" stop-color="white" stop-opacity="0.72"/>
<stop offset="0.64" stop-color="white" stop-opacity="0.56"/>
<stop offset="0.78" stop-color="white" stop-opacity="0.37"/>
<stop offset="0.91" stop-color="white" stop-opacity="0.15"/>
<stop offset="1" stop-color="white" stop-opacity="0"/>
</linearGradient>
<linearGradient id="paint10_linear_284_73" x1="156.689" y1="241.356" x2="156.689" y2="100.564" gradientUnits="userSpaceOnUse">
<stop stop-color="white"/>
<stop offset="0.11" stop-color="white" stop-opacity="0.98"/>
<stop offset="0.24" stop-color="white" stop-opacity="0.93"/>
<stop offset="0.37" stop-color="white" stop-opacity="0.84"/>
<stop offset="0.5" stop-color="white" stop-opacity="0.72"/>
<stop offset="0.64" stop-color="white" stop-opacity="0.56"/>
<stop offset="0.78" stop-color="white" stop-opacity="0.37"/>
<stop offset="0.91" stop-color="white" stop-opacity="0.15"/>
<stop offset="1" stop-color="white" stop-opacity="0"/>
</linearGradient>
<linearGradient id="paint11_linear_284_73" x1="108.54" y1="139.707" x2="108.54" y2="76.3389" gradientUnits="userSpaceOnUse">
<stop stop-color="white"/>
<stop offset="0.11" stop-color="white" stop-opacity="0.98"/>
<stop offset="0.24" stop-color="white" stop-opacity="0.93"/>
<stop offset="0.37" stop-color="white" stop-opacity="0.84"/>
<stop offset="0.5" stop-color="white" stop-opacity="0.72"/>
<stop offset="0.64" stop-color="white" stop-opacity="0.56"/>
<stop offset="0.78" stop-color="white" stop-opacity="0.37"/>
<stop offset="0.91" stop-color="white" stop-opacity="0.15"/>
<stop offset="1" stop-color="white" stop-opacity="0"/>
</linearGradient>
<linearGradient id="paint12_linear_284_73" x1="278.675" y1="139.841" x2="278.675" y2="48.9252" gradientUnits="userSpaceOnUse">
<stop stop-color="white"/>
<stop offset="0.11" stop-color="white" stop-opacity="0.98"/>
<stop offset="0.24" stop-color="white" stop-opacity="0.93"/>
<stop offset="0.37" stop-color="white" stop-opacity="0.84"/>
<stop offset="0.5" stop-color="white" stop-opacity="0.72"/>
<stop offset="0.64" stop-color="white" stop-opacity="0.56"/>
<stop offset="0.78" stop-color="white" stop-opacity="0.37"/>
<stop offset="0.91" stop-color="white" stop-opacity="0.15"/>
<stop offset="1" stop-color="white" stop-opacity="0"/>
</linearGradient>
<linearGradient id="paint13_linear_284_73" x1="293.329" y1="63.6122" x2="293.329" y2="-0.0220759" gradientUnits="userSpaceOnUse">
<stop stop-color="white"/>
<stop offset="0.11" stop-color="white" stop-opacity="0.98"/>
<stop offset="0.24" stop-color="white" stop-opacity="0.93"/>
<stop offset="0.37" stop-color="white" stop-opacity="0.84"/>
<stop offset="0.5" stop-color="white" stop-opacity="0.72"/>
<stop offset="0.64" stop-color="white" stop-opacity="0.56"/>
<stop offset="0.78" stop-color="white" stop-opacity="0.37"/>
<stop offset="0.91" stop-color="white" stop-opacity="0.15"/>
<stop offset="1" stop-color="white" stop-opacity="0"/>
</linearGradient>
<linearGradient id="paint14_linear_284_73" x1="415.015" y1="256.974" x2="415.015" y2="56.4343" gradientUnits="userSpaceOnUse">
<stop stop-color="white"/>
<stop offset="0.11" stop-color="white" stop-opacity="0.98"/>
<stop offset="0.24" stop-color="white" stop-opacity="0.93"/>
<stop offset="0.37" stop-color="white" stop-opacity="0.84"/>
<stop offset="0.5" stop-color="white" stop-opacity="0.72"/>
<stop offset="0.64" stop-color="white" stop-opacity="0.56"/>
<stop offset="0.78" stop-color="white" stop-opacity="0.37"/>
<stop offset="0.91" stop-color="white" stop-opacity="0.15"/>
<stop offset="1" stop-color="white" stop-opacity="0"/>
</linearGradient>
<linearGradient id="paint15_linear_284_73" x1="477.918" y1="140.139" x2="477.918" y2="76.9699" gradientUnits="userSpaceOnUse">
<stop stop-color="white"/>
<stop offset="0.11" stop-color="white" stop-opacity="0.98"/>
<stop offset="0.24" stop-color="white" stop-opacity="0.93"/>
<stop offset="0.37" stop-color="white" stop-opacity="0.84"/>
<stop offset="0.5" stop-color="white" stop-opacity="0.72"/>
<stop offset="0.64" stop-color="white" stop-opacity="0.56"/>
<stop offset="0.78" stop-color="white" stop-opacity="0.37"/>
<stop offset="0.91" stop-color="white" stop-opacity="0.15"/>
<stop offset="1" stop-color="white" stop-opacity="0"/>
</linearGradient>
</defs>
</svg>
