<svg width="971" height="723" viewBox="0 0 971 723" fill="none" xmlns="http://www.w3.org/2000/svg">
<path d="M586.219 293.432C586.219 238.372 541.584 193.737 486.524 193.737C431.463 193.737 386.828 238.372 386.828 293.432C386.828 348.493 431.463 393.128 486.524 393.128C541.584 393.128 586.219 348.493 586.219 293.432Z" fill="url(#paint0_linear_292_96)"/>
<path d="M639.149 396.161C660.551 368.379 678.496 328.335 688.067 282.076C697.172 238.177 697.139 196.404 689.795 163.173C715.383 189.891 730.404 225.848 730.072 263.898C721.465 268.617 714.918 276.925 712.791 287.194C710.598 297.728 713.489 308.163 719.803 316.039C704.915 353.259 675.272 381.772 639.116 396.161H639.149Z" fill="url(#paint1_linear_292_96)"/>
<path d="M740.806 325.145C732.531 323.451 725.719 318.698 721.199 312.351C716.314 305.472 714.22 296.699 716.048 287.859C717.809 279.252 723.06 272.207 730.005 267.854C736.718 263.534 745.093 261.772 753.567 263.534C770.781 267.089 781.847 283.805 778.358 300.82C774.802 317.801 757.987 328.734 740.806 325.179V325.145Z" fill="url(#paint2_linear_292_96)"/>
<path d="M522.006 474.521C556.767 470.002 597.775 454.383 637.254 428.462C674.74 403.837 704.25 374.294 722.561 345.615C721.763 382.602 706.942 418.658 679.824 445.31C670.387 442.552 659.919 443.815 651.145 449.564C642.14 455.479 636.822 464.917 635.726 474.92C598.872 490.738 557.764 489.907 522.04 474.521H522.006Z" fill="url(#paint3_linear_292_96)"/>
<path d="M644.133 496.188C639.481 489.143 638.019 480.968 639.315 473.291C640.71 464.983 645.429 457.273 652.973 452.322C660.317 447.503 669.024 446.207 676.999 448.035C684.809 449.73 691.954 454.416 696.706 461.627C706.376 476.315 702.389 495.955 687.866 505.526C673.344 515.03 653.737 510.843 644.1 496.188H644.133Z" fill="url(#paint4_linear_292_96)"/>
<path d="M383.795 447.104C411.577 468.506 451.622 486.451 497.88 496.022C541.78 505.127 583.552 505.094 616.784 497.75C590.066 523.338 554.109 538.359 516.058 538.027C511.339 529.42 503.031 522.873 492.763 520.746C482.228 518.553 471.793 521.444 463.917 527.758C426.698 512.87 398.185 483.227 383.795 447.071V447.104Z" fill="url(#paint5_linear_292_96)"/>
<path d="M454.812 548.761C456.507 540.487 461.259 533.674 467.606 529.155C474.485 524.27 483.259 522.176 492.098 524.004C500.705 525.765 507.75 531.016 512.104 537.961C516.424 544.674 518.185 553.048 516.424 561.522C512.868 578.737 496.153 589.803 479.138 586.313C462.156 582.758 451.223 565.942 454.779 548.761H454.812Z" fill="url(#paint6_linear_292_96)"/>
<path d="M305.435 329.995C309.954 364.756 325.573 405.764 351.494 445.244C376.119 482.729 405.662 512.239 434.341 530.55C397.354 529.752 361.297 514.931 334.645 487.814C337.404 478.376 336.141 467.908 330.392 459.135C324.476 450.129 315.039 444.812 305.036 443.715C289.217 406.861 290.048 365.753 305.435 330.029V329.995Z" fill="url(#paint7_linear_292_96)"/>
<path d="M283.767 452.089C290.812 447.436 298.987 445.974 306.664 447.27C314.972 448.666 322.682 453.385 327.633 460.928C332.452 468.272 333.748 476.979 331.92 484.955C330.225 492.764 325.54 499.909 318.328 504.661C303.64 514.332 284 510.344 274.429 495.822C264.925 481.299 269.112 461.693 283.767 452.055V452.089Z" fill="url(#paint8_linear_292_96)"/>
<path d="M332.851 191.784C311.45 219.566 293.505 259.61 283.934 305.869C274.828 349.768 274.862 391.541 282.206 424.772C256.617 398.054 241.596 362.097 241.929 324.047C250.536 319.328 257.082 311.02 259.209 300.751C261.403 290.217 258.511 279.782 252.197 271.906C267.085 234.686 296.728 206.173 332.884 191.784H332.851Z" fill="url(#paint9_linear_292_96)"/>
<path d="M231.195 262.766C239.469 264.461 246.282 269.213 250.801 275.561C255.687 282.44 257.78 291.213 255.952 300.053C254.191 308.66 248.94 315.705 241.995 320.058C235.282 324.378 226.908 326.14 218.434 324.378C201.22 320.823 190.153 304.107 193.643 287.092C197.198 270.111 214.014 259.177 231.195 262.733V262.766Z" fill="url(#paint10_linear_292_96)"/>
<path d="M449.96 113.424C415.199 117.943 374.191 133.562 334.711 159.483C297.226 184.108 267.716 213.651 249.405 242.33C250.203 205.343 265.024 169.286 292.141 142.634C301.579 145.393 312.047 144.13 320.821 138.381C329.826 132.466 335.143 123.028 336.24 113.025C373.094 97.2065 414.202 98.0373 449.926 113.424H449.96Z" fill="url(#paint11_linear_292_96)"/>
<path d="M327.866 91.7226C332.518 98.7678 333.98 106.943 332.684 114.619C331.288 122.927 326.57 130.637 319.026 135.589C311.682 140.407 302.975 141.703 294.999 139.876C287.19 138.181 280.045 133.495 275.293 126.284C265.622 111.595 269.61 91.9553 284.132 82.3845C298.655 72.8802 318.262 77.0674 327.899 91.7226H327.866Z" fill="url(#paint12_linear_292_96)"/>
<path d="M588.172 140.808C560.39 119.406 520.345 101.461 474.087 91.8903C430.187 82.7848 388.415 82.818 355.183 90.1622C381.902 64.5737 417.858 49.5529 455.909 49.8852C460.628 58.4923 468.936 65.0389 479.204 67.1658C489.739 69.3591 500.174 66.4679 508.05 60.1538C545.269 75.0417 573.782 104.685 588.172 140.841V140.808Z" fill="url(#paint13_linear_292_96)"/>
<path d="M517.188 39.1507C515.493 47.4254 510.741 54.238 504.394 58.7575C497.515 63.6426 488.742 65.7362 479.902 63.9085C471.295 62.1472 464.25 56.8965 459.896 49.9511C455.576 43.2382 453.815 34.8638 455.576 26.3897C459.132 9.17557 475.848 -1.89061 492.862 1.59874C509.844 5.15455 520.777 21.9698 517.221 39.1507H517.188Z" fill="url(#paint14_linear_292_96)"/>
<path d="M666.532 257.948C662.013 223.188 646.394 182.18 620.473 142.7C595.848 105.215 566.305 75.7047 537.626 57.3939C574.613 58.1915 610.67 73.0129 637.322 100.13C634.563 109.568 635.826 120.036 641.575 128.809C647.491 137.815 656.928 143.132 666.931 144.229C682.75 181.083 681.919 222.191 666.532 257.915V257.948Z" fill="url(#paint15_linear_292_96)"/>
<path d="M688.233 135.821C681.188 140.473 673.013 141.936 665.336 140.64C657.028 139.244 649.318 134.525 644.367 126.981C639.548 119.637 638.252 110.93 640.08 102.955C641.775 95.1451 646.461 88.0002 653.672 83.2481C668.36 73.5776 688 77.5654 697.571 92.0878C707.075 106.61 702.888 126.217 688.233 135.854V135.821Z" fill="url(#paint16_linear_292_96)"/>
<path d="M0.468262 704.001V703.218H0.546595C2.4266 703.218 3.94104 702.643 5.08993 701.494C6.23882 700.345 6.81326 698.831 6.81326 696.951V652.301C6.81326 650.421 6.23882 648.907 5.08993 647.758C3.94104 646.609 2.4266 646.034 0.546595 646.034H0.468262V645.251H25.2999V646.034H25.2216C23.3416 646.034 21.8272 646.609 20.6783 647.758C19.5294 648.907 18.9549 650.421 18.9549 652.301V696.951C18.9549 698.831 19.5294 700.345 20.6783 701.494C21.8272 702.643 23.3416 703.218 25.2216 703.218H25.2999V704.001H0.468262ZM24.8054 704.001V703.218H24.8838C26.7638 703.218 28.2782 702.643 29.4271 701.494C30.576 700.345 31.1504 698.831 31.1504 696.951V671.258C31.1504 669.273 30.7327 667.733 29.8971 666.636C29.1138 665.539 27.4166 664.991 24.8054 664.991V664.208H32.5604C34.7016 664.208 36.3466 664.103 37.4955 663.894C38.6966 663.685 39.5843 663.424 40.1588 663.111C40.7332 662.745 41.151 662.38 41.4121 662.014H42.1955L42.2738 672.198C43.6316 669.482 45.6943 667.289 48.4621 665.618C51.2299 663.947 54.1543 663.111 57.2355 663.111C60.2121 663.111 62.6927 663.947 64.6771 665.618C66.6616 667.289 67.941 669.534 68.5155 672.354C69.9777 669.534 72.0666 667.289 74.7821 665.618C77.5499 663.947 80.5266 663.111 83.7121 663.111C87.211 663.111 90.0049 664.26 92.0938 666.558C94.2349 668.855 95.3055 671.884 95.3055 675.644V696.951C95.3055 698.831 95.8799 700.345 97.0288 701.494C98.1777 702.643 99.6921 703.218 101.572 703.218H101.65V704.001H77.7588V703.218H77.8371C79.7171 703.218 81.2316 702.643 82.3805 701.494C83.5293 700.345 84.1038 698.831 84.1038 696.951V674.861C84.1038 672.25 83.5816 670.161 82.5371 668.594C81.4927 667.028 80.1349 666.244 78.4638 666.244C76.8449 666.244 75.1477 666.975 73.3721 668.438C71.5966 669.848 70.056 671.702 68.7505 673.999C68.8027 674.104 68.8288 674.234 68.8288 674.391C68.8288 674.548 68.8288 674.678 68.8288 674.783V696.951C68.8288 698.831 69.4032 700.345 70.5521 701.494C71.701 702.643 73.2155 703.218 75.0955 703.218H75.1738V704.001H51.2821V703.218H51.3605C53.2405 703.218 54.7549 702.643 55.9038 701.494C57.0527 700.345 57.6271 698.831 57.6271 696.951V674.861C57.6271 672.25 57.1049 670.161 56.0605 668.594C55.0682 667.028 53.7366 666.244 52.0655 666.244C50.4466 666.244 48.7493 666.949 46.9738 668.359C45.2505 669.717 43.736 671.571 42.4305 673.921V696.951C42.4305 698.831 43.0049 700.345 44.1538 701.494C45.3027 702.643 46.8171 703.218 48.6971 703.218H48.7755V704.001H24.8054ZM112.459 705.098C109.274 705.098 106.715 704.236 104.783 702.513C102.85 700.789 101.884 698.518 101.884 695.698C101.884 694.497 102.093 693.374 102.511 692.329C102.929 691.233 103.712 690.162 104.861 689.118C106.062 688.073 107.707 687.003 109.796 685.906C111.885 684.757 114.653 683.556 118.099 682.303L125.384 679.639V673.764C125.384 670.788 124.914 668.438 123.974 666.714C123.034 664.939 121.729 664.051 120.058 664.051C118.073 664.103 116.376 665.409 114.966 667.968C113.608 670.527 112.694 674.078 112.224 678.621L103.764 673.764C104.652 671.623 106.01 669.743 107.838 668.124C109.665 666.505 111.754 665.252 114.104 664.364C116.506 663.477 119.013 663.033 121.624 663.033C126.063 663.033 129.666 664.286 132.434 666.793C135.254 669.247 136.664 672.615 136.664 676.898V695.776C136.664 698.805 137.683 700.319 139.719 700.319C140.92 700.319 142.095 699.667 143.244 698.361L143.871 698.909C142.513 700.737 140.868 702.225 138.936 703.374C137.004 704.523 135.124 705.098 133.296 705.098C131.311 705.098 129.588 704.419 128.126 703.061C126.716 701.703 125.828 699.902 125.463 697.656C122.904 700.267 120.658 702.173 118.726 703.374C116.846 704.523 114.757 705.098 112.459 705.098ZM118.334 700.241C119.483 700.241 120.58 699.954 121.624 699.379C122.721 698.805 123.948 697.865 125.306 696.559L125.384 680.658L122.251 681.833C119.588 682.825 117.551 683.843 116.141 684.888C114.731 685.88 113.739 687.003 113.164 688.256C112.642 689.509 112.381 690.945 112.381 692.564C112.381 694.81 112.929 696.664 114.026 698.126C115.175 699.536 116.611 700.241 118.334 700.241ZM162.654 721.548C157.118 721.548 152.627 720.79 149.18 719.276C145.786 717.814 144.089 715.882 144.089 713.479C144.089 711.652 144.95 710.007 146.674 708.544C148.449 707.134 150.852 706.038 153.88 705.254C148.972 704.001 146.517 701.782 146.517 698.596C146.517 696.873 147.196 695.28 148.554 693.818C149.912 692.303 151.818 691.102 154.272 690.214C151.661 689.065 149.624 687.394 148.162 685.201C146.752 683.008 146.047 680.423 146.047 677.446C146.047 673.112 147.535 669.639 150.512 667.028C153.541 664.417 157.588 663.111 162.654 663.111C165.056 663.111 167.406 663.477 169.704 664.208H184.117L183.334 665.618H172.68C174.769 666.819 176.362 668.438 177.459 670.474C178.608 672.459 179.182 674.783 179.182 677.446C179.182 681.78 177.694 685.279 174.717 687.943C171.793 690.554 167.772 691.859 162.654 691.859C159.834 691.859 157.353 691.442 155.212 690.606C153.541 691.494 152.705 692.538 152.705 693.739C152.705 694.784 153.437 695.489 154.899 695.854C155.63 696.063 156.674 696.246 158.032 696.403C159.39 696.559 161.035 696.664 162.967 696.716L165.709 696.873C171.714 697.082 176.336 698.23 179.574 700.319C182.864 702.408 184.509 705.254 184.509 708.858C184.509 712.879 182.577 715.986 178.712 718.179C174.848 720.425 169.495 721.548 162.654 721.548ZM162.575 690.919C164.194 690.919 165.526 689.692 166.57 687.238C167.51 684.783 167.98 681.519 167.98 677.446C167.98 673.32 167.51 670.057 166.57 667.654C165.578 665.304 164.273 664.129 162.654 664.129C160.983 664.129 159.677 665.304 158.737 667.654C157.797 670.057 157.327 673.32 157.327 677.446C157.327 681.572 157.797 684.862 158.737 687.316C159.677 689.718 160.957 690.919 162.575 690.919ZM163.515 720.529C165.918 720.529 168.137 720.164 170.174 719.433C172.21 718.754 173.829 717.788 175.03 716.534C176.284 715.281 176.91 713.845 176.91 712.226C176.91 710.45 175.997 709.04 174.169 707.996C172.237 707.004 169.286 706.482 165.317 706.429L162.575 706.273C161.061 706.22 159.651 706.116 158.345 705.959C157.092 705.855 155.969 705.698 154.977 705.489C153.88 705.855 153.071 706.586 152.549 707.683C152.027 708.779 151.765 710.085 151.765 711.599C151.765 714.315 152.784 716.482 154.82 718.101C156.857 719.72 159.755 720.529 163.515 720.529ZM185.452 704.001V703.218H185.53C187.41 703.218 188.925 702.643 190.073 701.494C191.222 700.345 191.797 698.831 191.797 696.951V671.258C191.797 669.273 191.379 667.733 190.543 666.636C189.76 665.539 188.063 664.991 185.452 664.991V664.208H193.442C196.105 664.208 198.142 663.92 199.552 663.346C200.857 662.772 201.771 662.067 202.293 661.231H203.077V696.951C203.077 698.831 203.651 700.345 204.8 701.494C205.949 702.643 207.463 703.218 209.343 703.218H209.422V704.001H185.452ZM197.358 656.296C195.478 656.296 193.912 655.695 192.658 654.494C191.457 653.241 190.857 651.674 190.857 649.794C190.857 647.914 191.457 646.374 192.658 645.173C193.912 643.919 195.478 643.293 197.358 643.293C199.186 643.293 200.701 643.919 201.902 645.173C203.155 646.426 203.782 647.967 203.782 649.794C203.782 651.622 203.155 653.163 201.902 654.416C200.701 655.669 199.186 656.296 197.358 656.296ZM208.629 704.001V703.218H208.707C210.587 703.218 212.101 702.643 213.25 701.494C214.399 700.345 214.974 698.831 214.974 696.951V671.258C214.974 669.273 214.556 667.733 213.72 666.636C212.937 665.539 211.24 664.991 208.629 664.991V664.208H216.384C219.047 664.208 221.084 663.92 222.494 663.346C223.799 662.772 224.713 662.067 225.235 661.231H226.019L226.097 672.198C227.455 669.482 229.518 667.289 232.285 665.618C235.053 663.947 237.978 663.111 241.059 663.111C244.558 663.111 247.351 664.26 249.44 666.558C251.581 668.855 252.652 671.884 252.652 675.644V696.951C252.652 698.831 253.226 700.345 254.375 701.494C255.524 702.643 257.039 703.218 258.919 703.218H258.997V704.001H235.105V703.218H235.184C237.064 703.218 238.578 702.643 239.727 701.494C240.876 700.345 241.45 698.831 241.45 696.951V674.861C241.45 672.25 240.928 670.161 239.884 668.594C238.891 667.028 237.56 666.244 235.889 666.244C234.27 666.244 232.573 666.949 230.797 668.359C229.074 669.717 227.559 671.571 226.254 673.921V696.951C226.254 698.831 226.828 700.345 227.977 701.494C229.126 702.643 230.64 703.218 232.52 703.218H232.599V704.001H208.629ZM277.041 704.941C273.438 704.941 270.226 704.053 267.406 702.278C264.638 700.502 262.471 698.048 260.905 694.914C259.338 691.729 258.555 688.099 258.555 684.026C258.555 679.848 259.416 676.193 261.14 673.059C262.863 669.926 265.213 667.498 268.19 665.774C271.218 663.999 274.639 663.111 278.451 663.111C281.637 663.111 284.457 663.738 286.911 664.991C289.418 666.244 291.402 668.02 292.865 670.318C294.379 672.563 295.241 675.174 295.45 678.151L295.528 679.326H269.208V679.718C269.208 685.253 270.435 689.692 272.89 693.034C275.344 696.324 278.634 697.969 282.76 697.969C285.266 697.969 287.642 697.369 289.888 696.168C292.186 694.914 294.04 693.243 295.45 691.154L296.155 691.389C295.267 694.053 293.883 696.403 292.003 698.439C290.123 700.476 287.903 702.069 285.345 703.218C282.786 704.367 280.018 704.941 277.041 704.941ZM269.286 678.151H285.188C285.188 674.025 284.509 670.683 283.151 668.124C281.846 665.565 279.992 664.286 277.59 664.286C275.292 664.286 273.386 665.539 271.871 668.046C270.357 670.553 269.495 673.921 269.286 678.151ZM327.466 706.978L327.388 695.854C326.134 698.57 324.254 700.815 321.748 702.591C319.241 704.314 316.551 705.176 313.679 705.176C310.859 705.176 308.326 704.288 306.081 702.513C303.835 700.737 302.06 698.309 300.754 695.228C299.449 692.094 298.796 688.569 298.796 684.653C298.796 680.266 299.605 676.454 301.224 673.216C302.895 669.978 305.193 667.498 308.118 665.774C311.042 663.999 314.41 663.111 318.223 663.111C320.364 663.111 322.113 663.45 323.471 664.129C324.829 664.756 326.056 665.853 327.153 667.419V652.301C327.153 650.421 326.552 648.907 325.351 647.758C324.202 646.609 322.688 646.034 320.808 646.034V645.251H328.798C331.409 645.251 333.393 644.99 334.751 644.468C336.109 643.945 337.075 643.214 337.649 642.274H338.433V696.951C338.433 698.831 339.007 700.345 340.156 701.494C341.305 702.643 342.845 703.218 344.778 703.218V704.001H336.788C334.49 704.001 332.662 704.236 331.304 704.706C329.999 705.176 328.98 705.933 328.249 706.978H327.466ZM317.988 702.043C319.189 702.043 320.39 701.677 321.591 700.946C322.844 700.163 323.967 699.144 324.959 697.891C325.951 696.638 326.683 695.306 327.153 693.896V674.783C326.891 671.649 326.108 669.143 324.803 667.263C323.549 665.383 321.904 664.443 319.868 664.443C317.152 664.443 315.037 666.166 313.523 669.613C312.06 673.059 311.329 678.151 311.329 684.888C311.329 696.324 313.549 702.043 317.988 702.043ZM380.241 704.001L380.319 703.218H380.397C382.277 703.218 383.792 702.643 384.941 701.494C386.089 700.345 386.664 698.831 386.664 696.951V646.348H384.392C381.833 646.348 379.327 646.765 376.872 647.601C374.418 648.384 372.303 649.847 370.527 651.988C368.752 654.077 367.551 657.105 366.924 661.074H366.141L368.334 645.251H417.136L419.407 661.074H418.624C417.997 657.158 416.77 654.129 414.942 651.988C413.167 649.847 411.026 648.384 408.519 647.601C406.064 646.765 403.506 646.348 400.842 646.348H398.806V696.951C398.806 698.831 399.38 700.345 400.529 701.494C401.678 702.643 403.192 703.218 405.072 703.218L405.151 704.001H380.241ZM414.024 704.001V703.218H414.103C415.983 703.218 417.497 702.643 418.646 701.494C419.795 700.345 420.369 698.831 420.369 696.951V671.258C420.369 669.273 419.951 667.733 419.116 666.636C418.333 665.539 416.635 664.991 414.024 664.991V664.208H421.779C424.547 664.208 426.636 663.947 428.046 663.424C429.456 662.85 430.448 662.119 431.023 661.231H431.414L431.493 674.078C432.171 672.511 433.033 670.866 434.078 669.143C435.174 667.419 436.532 665.983 438.151 664.834C439.822 663.633 441.806 663.033 444.104 663.033C444.888 663.033 445.723 663.111 446.611 663.268C447.499 663.424 448.439 663.712 449.431 664.129L446.376 673.294C444.496 672.25 442.851 671.519 441.441 671.101C440.083 670.683 438.882 670.474 437.838 670.474C436.062 670.474 434.73 671.023 433.843 672.119C433.007 673.216 432.276 674.522 431.649 676.036V696.951C431.649 698.831 432.224 700.345 433.373 701.494C434.521 702.643 436.036 703.218 437.916 703.218H437.994V704.001H414.024ZM460.522 705.098C457.337 705.098 454.778 704.236 452.846 702.513C450.913 700.789 449.947 698.518 449.947 695.698C449.947 694.497 450.156 693.374 450.574 692.329C450.992 691.233 451.775 690.162 452.924 689.118C454.125 688.073 455.77 687.003 457.859 685.906C459.948 684.757 462.716 683.556 466.162 682.303L473.447 679.639V673.764C473.447 670.788 472.977 668.438 472.037 666.714C471.097 664.939 469.792 664.051 468.121 664.051C466.136 664.103 464.439 665.409 463.029 667.968C461.671 670.527 460.757 674.078 460.287 678.621L451.827 673.764C452.715 671.623 454.073 669.743 455.901 668.124C457.728 666.505 459.817 665.252 462.167 664.364C464.57 663.477 467.076 663.033 469.687 663.033C474.126 663.033 477.73 664.286 480.497 666.793C483.317 669.247 484.727 672.615 484.727 676.898V695.776C484.727 698.805 485.746 700.319 487.782 700.319C488.983 700.319 490.158 699.667 491.307 698.361L491.934 698.909C490.576 700.737 488.931 702.225 486.999 703.374C485.067 704.523 483.187 705.098 481.359 705.098C479.375 705.098 477.651 704.419 476.189 703.061C474.779 701.703 473.891 699.902 473.526 697.656C470.967 700.267 468.721 702.173 466.789 703.374C464.909 704.523 462.82 705.098 460.522 705.098ZM466.397 700.241C467.546 700.241 468.643 699.954 469.687 699.379C470.784 698.805 472.011 697.865 473.369 696.559L473.447 680.658L470.314 681.833C467.651 682.825 465.614 683.843 464.204 684.888C462.794 685.88 461.802 687.003 461.227 688.256C460.705 689.509 460.444 690.945 460.444 692.564C460.444 694.81 460.992 696.664 462.089 698.126C463.238 699.536 464.674 700.241 466.397 700.241ZM490.369 704.001V703.218H490.447C492.327 703.218 493.841 702.643 494.99 701.494C496.139 700.345 496.714 698.831 496.714 696.951V671.258C496.714 669.273 496.296 667.733 495.46 666.636C494.677 665.539 492.98 664.991 490.369 664.991V664.208H498.124C500.787 664.208 502.824 663.92 504.234 663.346C505.539 662.772 506.453 662.067 506.975 661.231H507.759L507.837 672.198C509.195 669.482 511.258 667.289 514.025 665.618C516.793 663.947 519.718 663.111 522.799 663.111C526.298 663.111 529.091 664.26 531.18 666.558C533.321 668.855 534.392 671.884 534.392 675.644V696.951C534.392 698.831 534.966 700.345 536.115 701.494C537.264 702.643 538.779 703.218 540.659 703.218H540.737V704.001H516.845V703.218H516.924C518.804 703.218 520.318 702.643 521.467 701.494C522.616 700.345 523.19 698.831 523.19 696.951V674.861C523.19 672.25 522.668 670.161 521.624 668.594C520.631 667.028 519.3 666.244 517.629 666.244C516.01 666.244 514.313 666.949 512.537 668.359C510.814 669.717 509.299 671.571 507.994 673.921V696.951C507.994 698.831 508.568 700.345 509.717 701.494C510.866 702.643 512.38 703.218 514.26 703.218H514.339V704.001H490.369ZM554.913 705.098C553.556 705.098 552.537 705.045 551.858 704.941C551.18 704.837 550.527 704.706 549.9 704.549C549.326 704.393 548.542 704.262 547.55 704.158C546.558 704.053 545.043 704.001 543.007 704.001L541.127 689.274H542.145C542.981 694.183 544.547 697.891 546.845 700.398C549.143 702.852 551.65 704.079 554.365 704.079C557.028 704.079 559.039 703.531 560.397 702.434C561.807 701.338 562.512 699.849 562.512 697.969C562.512 696.768 562.198 695.724 561.572 694.836C560.997 693.896 559.979 692.956 558.517 692.016C557.055 691.024 555.07 689.849 552.563 688.491L550.292 687.238C547.42 685.619 545.278 683.739 543.868 681.598C542.511 679.404 541.832 677.054 541.832 674.548C541.832 670.997 543.111 668.203 545.67 666.166C548.281 664.129 551.754 663.111 556.088 663.111C557.185 663.111 558.073 663.163 558.752 663.268C559.431 663.372 560.083 663.503 560.71 663.659C561.337 663.816 562.12 663.947 563.06 664.051C564 664.155 565.253 664.208 566.82 664.208L567.917 676.819H566.977C566.663 674.365 565.958 672.198 564.862 670.318C563.817 668.385 562.564 666.897 561.102 665.853C559.64 664.756 558.151 664.208 556.637 664.208C554.652 664.208 553.06 664.73 551.858 665.774C550.71 666.819 550.135 668.281 550.135 670.161C550.135 671.571 550.579 672.877 551.467 674.078C552.407 675.227 554.182 676.48 556.793 677.838L559.143 679.013C562.799 680.893 565.462 682.851 567.133 684.888C568.805 686.924 569.64 689.535 569.64 692.721C569.64 700.868 564.731 704.993 554.913 705.098ZM571.521 704.001V703.218C573.401 703.218 574.916 702.643 576.065 701.494C577.266 700.345 577.866 698.831 577.866 696.951V665.618H571.208L571.991 664.208H577.866V662.406C577.866 658.437 578.519 655.017 579.825 652.144C581.182 649.22 583.089 646.948 585.543 645.329C587.997 643.71 590.896 642.901 594.238 642.901C596.536 642.901 598.703 643.267 600.74 643.998C602.829 644.677 604.604 645.643 606.066 646.896C607.581 648.097 608.651 649.507 609.278 651.126L599.878 656.453C599.826 654.573 599.669 652.875 599.408 651.361C599.199 649.847 598.834 648.515 598.311 647.366C597.267 645.068 595.935 643.919 594.316 643.919C592.645 643.919 591.392 645.199 590.556 647.758C589.616 650.317 589.146 653.815 589.146 658.254V664.208H599.721L598.938 665.618H589.146V696.951C589.146 698.831 589.851 700.345 591.261 701.494C592.724 702.643 594.63 703.218 596.98 703.218H597.058V704.001H571.521ZM619.207 705.098C614.925 705.098 611.165 704.236 607.927 702.513C604.742 700.789 602.261 698.361 600.486 695.228C598.71 692.094 597.822 688.387 597.822 684.104C597.822 679.822 598.71 676.114 600.486 672.981C602.261 669.848 604.742 667.419 607.927 665.696C611.165 663.973 614.925 663.111 619.207 663.111C623.49 663.111 627.224 663.973 630.409 665.696C633.595 667.419 636.075 669.848 637.851 672.981C639.626 676.114 640.514 679.822 640.514 684.104C640.514 688.387 639.626 692.094 637.851 695.228C636.075 698.361 633.595 700.789 630.409 702.513C627.224 704.236 623.49 705.098 619.207 705.098ZM619.129 704.079C620.957 704.079 622.524 703.165 623.829 701.338C625.135 699.51 626.153 697.082 626.884 694.053C627.615 690.972 627.981 687.629 627.981 684.026C627.981 680.109 627.589 676.663 626.806 673.686C626.075 670.657 625.03 668.307 623.672 666.636C622.367 664.913 620.879 664.051 619.207 664.051C617.432 664.051 615.865 664.965 614.507 666.793C613.202 668.62 612.184 671.049 611.452 674.078C610.721 677.107 610.356 680.423 610.356 684.026C610.356 687.995 610.747 691.494 611.531 694.523C612.314 697.552 613.359 699.902 614.664 701.573C616.022 703.244 617.51 704.079 619.129 704.079ZM641.604 704.001V703.218H641.682C643.562 703.218 645.077 702.643 646.226 701.494C647.375 700.345 647.949 698.831 647.949 696.951V671.258C647.949 669.273 647.531 667.733 646.696 666.636C645.912 665.539 644.215 664.991 641.604 664.991V664.208H649.359C652.127 664.208 654.216 663.947 655.626 663.424C657.036 662.85 658.028 662.119 658.602 661.231H658.994L659.072 674.078C659.751 672.511 660.613 670.866 661.657 669.143C662.754 667.419 664.112 665.983 665.731 664.834C667.402 663.633 669.386 663.033 671.684 663.033C672.467 663.033 673.303 663.111 674.191 663.268C675.078 663.424 676.018 663.712 677.011 664.129L673.956 673.294C672.076 672.25 670.431 671.519 669.021 671.101C667.663 670.683 666.462 670.474 665.417 670.474C663.642 670.474 662.31 671.023 661.422 672.119C660.587 673.216 659.856 674.522 659.229 676.036V696.951C659.229 698.831 659.803 700.345 660.952 701.494C662.101 702.643 663.616 703.218 665.496 703.218H665.574V704.001H641.604ZM677.099 704.001V703.218H677.177C679.057 703.218 680.572 702.643 681.72 701.494C682.869 700.345 683.444 698.831 683.444 696.951V671.258C683.444 669.273 683.026 667.733 682.19 666.636C681.407 665.539 679.71 664.991 677.099 664.991V664.208H684.854C686.995 664.208 688.64 664.103 689.789 663.894C690.99 663.685 691.878 663.424 692.452 663.111C693.027 662.745 693.444 662.38 693.705 662.014H694.489L694.567 672.198C695.925 669.482 697.988 667.289 700.755 665.618C703.523 663.947 706.448 663.111 709.529 663.111C712.505 663.111 714.986 663.947 716.97 665.618C718.955 667.289 720.234 669.534 720.809 672.354C722.271 669.534 724.36 667.289 727.075 665.618C729.843 663.947 732.82 663.111 736.005 663.111C739.504 663.111 742.298 664.26 744.387 666.558C746.528 668.855 747.599 671.884 747.599 675.644V696.951C747.599 698.831 748.173 700.345 749.322 701.494C750.471 702.643 751.985 703.218 753.865 703.218H753.944V704.001H730.052V703.218H730.13C732.01 703.218 733.525 702.643 734.674 701.494C735.823 700.345 736.397 698.831 736.397 696.951V674.861C736.397 672.25 735.875 670.161 734.83 668.594C733.786 667.028 732.428 666.244 730.757 666.244C729.138 666.244 727.441 666.975 725.665 668.438C723.89 669.848 722.349 671.702 721.044 673.999C721.096 674.104 721.122 674.234 721.122 674.391C721.122 674.548 721.122 674.678 721.122 674.783V696.951C721.122 698.831 721.697 700.345 722.845 701.494C723.994 702.643 725.509 703.218 727.389 703.218H727.467V704.001H703.575V703.218H703.654C705.534 703.218 707.048 702.643 708.197 701.494C709.346 700.345 709.92 698.831 709.92 696.951V674.861C709.92 672.25 709.398 670.161 708.354 668.594C707.362 667.028 706.03 666.244 704.359 666.244C702.74 666.244 701.043 666.949 699.267 668.359C697.544 669.717 696.029 671.571 694.724 673.921V696.951C694.724 698.831 695.298 700.345 696.447 701.494C697.596 702.643 699.11 703.218 700.99 703.218H701.069V704.001H677.099ZM764.753 705.098C761.567 705.098 759.008 704.236 757.076 702.513C755.144 700.789 754.178 698.518 754.178 695.698C754.178 694.497 754.386 693.374 754.804 692.329C755.222 691.233 756.005 690.162 757.154 689.118C758.355 688.073 760 687.003 762.089 685.906C764.178 684.757 766.946 683.556 770.393 682.303L777.678 679.639V673.764C777.678 670.788 777.208 668.438 776.268 666.714C775.328 664.939 774.022 664.051 772.351 664.051C770.366 664.103 768.669 665.409 767.259 667.968C765.901 670.527 764.988 674.078 764.518 678.621L756.058 673.764C756.945 671.623 758.303 669.743 760.131 668.124C761.959 666.505 764.048 665.252 766.398 664.364C768.8 663.477 771.306 663.033 773.918 663.033C778.356 663.033 781.96 664.286 784.728 666.793C787.548 669.247 788.958 672.615 788.958 676.898V695.776C788.958 698.805 789.976 700.319 792.013 700.319C793.214 700.319 794.389 699.667 795.538 698.361L796.164 698.909C794.806 700.737 793.161 702.225 791.229 703.374C789.297 704.523 787.417 705.098 785.589 705.098C783.605 705.098 781.881 704.419 780.419 703.061C779.009 701.703 778.121 699.902 777.756 697.656C775.197 700.267 772.951 702.173 771.019 703.374C769.139 704.523 767.05 705.098 764.753 705.098ZM770.628 700.241C771.776 700.241 772.873 699.954 773.918 699.379C775.014 698.805 776.241 697.865 777.599 696.559L777.678 680.658L774.544 681.833C771.881 682.825 769.844 683.843 768.434 684.888C767.024 685.88 766.032 687.003 765.458 688.256C764.935 689.509 764.674 690.945 764.674 692.564C764.674 694.81 765.223 696.664 766.319 698.126C767.468 699.536 768.904 700.241 770.628 700.241ZM808.756 705.098C806.04 705.098 803.821 704.236 802.097 702.513C800.374 700.789 799.512 698.544 799.512 695.776V665.618H792.854V664.599C796.457 664.338 799.669 663.189 802.489 661.153C805.361 659.116 807.711 656.374 809.539 652.928H810.792V664.208H821.211L820.427 665.618H810.792V694.053C810.792 698.23 812.202 700.319 815.022 700.319C815.962 700.319 817.033 700.032 818.234 699.458C819.487 698.883 820.662 698.126 821.759 697.186V697.969C820.036 700.163 817.999 701.912 815.649 703.218C813.299 704.471 811.001 705.098 808.756 705.098ZM820.992 704.001V703.218H821.071C822.951 703.218 824.465 702.643 825.614 701.494C826.763 700.345 827.337 698.831 827.337 696.951V671.258C827.337 669.273 826.919 667.733 826.084 666.636C825.301 665.539 823.603 664.991 820.992 664.991V664.208H828.982C831.646 664.208 833.682 663.92 835.092 663.346C836.398 662.772 837.312 662.067 837.834 661.231H838.617V696.951C838.617 698.831 839.192 700.345 840.341 701.494C841.489 702.643 843.004 703.218 844.884 703.218H844.962V704.001H820.992ZM832.899 656.296C831.019 656.296 829.452 655.695 828.199 654.494C826.998 653.241 826.397 651.674 826.397 649.794C826.397 647.914 826.998 646.374 828.199 645.173C829.452 643.919 831.019 643.293 832.899 643.293C834.727 643.293 836.241 643.919 837.442 645.173C838.696 646.426 839.322 647.967 839.322 649.794C839.322 651.622 838.696 653.163 837.442 654.416C836.241 655.669 834.727 656.296 832.899 656.296ZM866.982 705.098C862.7 705.098 858.94 704.236 855.702 702.513C852.517 700.789 850.036 698.361 848.261 695.228C846.485 692.094 845.597 688.387 845.597 684.104C845.597 679.822 846.485 676.114 848.261 672.981C850.036 669.848 852.517 667.419 855.702 665.696C858.94 663.973 862.7 663.111 866.982 663.111C871.265 663.111 874.999 663.973 878.184 665.696C881.37 667.419 883.85 669.848 885.626 672.981C887.401 676.114 888.289 679.822 888.289 684.104C888.289 688.387 887.401 692.094 885.626 695.228C883.85 698.361 881.37 700.789 878.184 702.513C874.999 704.236 871.265 705.098 866.982 705.098ZM866.904 704.079C868.732 704.079 870.299 703.165 871.604 701.338C872.91 699.51 873.928 697.082 874.659 694.053C875.39 690.972 875.756 687.629 875.756 684.026C875.756 680.109 875.364 676.663 874.581 673.686C873.85 670.657 872.805 668.307 871.447 666.636C870.142 664.913 868.654 664.051 866.982 664.051C865.207 664.051 863.64 664.965 862.282 666.793C860.977 668.62 859.959 671.049 859.227 674.078C858.496 677.107 858.131 680.423 858.131 684.026C858.131 687.995 858.522 691.494 859.306 694.523C860.089 697.552 861.134 699.902 862.439 701.573C863.797 703.244 865.285 704.079 866.904 704.079ZM889.379 704.001V703.218H889.457C891.337 703.218 892.852 702.643 894.001 701.494C895.15 700.345 895.724 698.831 895.724 696.951V671.258C895.724 669.273 895.306 667.733 894.471 666.636C893.687 665.539 891.99 664.991 889.379 664.991V664.208H897.134C899.797 664.208 901.834 663.92 903.244 663.346C904.55 662.772 905.464 662.067 905.986 661.231H906.769L906.847 672.198C908.205 669.482 910.268 667.289 913.036 665.618C915.804 663.947 918.728 663.111 921.809 663.111C925.308 663.111 928.102 664.26 930.191 666.558C932.332 668.855 933.402 671.884 933.402 675.644V696.951C933.402 698.831 933.977 700.345 935.126 701.494C936.275 702.643 937.789 703.218 939.669 703.218H939.747V704.001H915.856V703.218H915.934C917.814 703.218 919.329 702.643 920.477 701.494C921.626 700.345 922.201 698.831 922.201 696.951V674.861C922.201 672.25 921.679 670.161 920.634 668.594C919.642 667.028 918.31 666.244 916.639 666.244C915.02 666.244 913.323 666.949 911.547 668.359C909.824 669.717 908.31 671.571 907.004 673.921V696.951C907.004 698.831 907.579 700.345 908.727 701.494C909.876 702.643 911.391 703.218 913.271 703.218H913.349V704.001H889.379ZM953.924 705.098C952.566 705.098 951.548 705.045 950.869 704.941C950.19 704.837 949.537 704.706 948.911 704.549C948.336 704.393 947.553 704.262 946.561 704.158C945.568 704.053 944.054 704.001 942.017 704.001L940.137 689.274H941.156C941.991 694.183 943.558 697.891 945.856 700.398C948.153 702.852 950.66 704.079 953.376 704.079C956.039 704.079 958.049 703.531 959.407 702.434C960.817 701.338 961.522 699.849 961.522 697.969C961.522 696.768 961.209 695.724 960.582 694.836C960.008 693.896 958.989 692.956 957.527 692.016C956.065 691.024 954.081 689.849 951.574 688.491L949.302 687.238C946.43 685.619 944.289 683.739 942.879 681.598C941.521 679.404 940.842 677.054 940.842 674.548C940.842 670.997 942.122 668.203 944.681 666.166C947.292 664.129 950.764 663.111 955.099 663.111C956.196 663.111 957.083 663.163 957.762 663.268C958.441 663.372 959.094 663.503 959.721 663.659C960.347 663.816 961.131 663.947 962.071 664.051C963.011 664.155 964.264 664.208 965.831 664.208L966.927 676.819H965.987C965.674 674.365 964.969 672.198 963.872 670.318C962.828 668.385 961.574 666.897 960.112 665.853C958.65 664.756 957.162 664.208 955.647 664.208C953.663 664.208 952.07 664.73 950.869 665.774C949.72 666.819 949.146 668.281 949.146 670.161C949.146 671.571 949.589 672.877 950.477 674.078C951.417 675.227 953.193 676.48 955.804 677.838L958.154 679.013C961.809 680.893 964.473 682.851 966.144 684.888C967.815 686.924 968.651 689.535 968.651 692.721C968.651 700.868 963.742 704.993 953.924 705.098Z" fill="white"/>
<defs>
<linearGradient id="paint0_linear_292_96" x1="486.524" y1="393.128" x2="486.524" y2="193.737" gradientUnits="userSpaceOnUse">
<stop stop-color="white"/>
<stop offset="0.11" stop-color="white" stop-opacity="0.98"/>
<stop offset="0.24" stop-color="white" stop-opacity="0.93"/>
<stop offset="0.37" stop-color="white" stop-opacity="0.84"/>
<stop offset="0.5" stop-color="white" stop-opacity="0.72"/>
<stop offset="0.64" stop-color="white" stop-opacity="0.56"/>
<stop offset="0.78" stop-color="white" stop-opacity="0.37"/>
<stop offset="0.91" stop-color="white" stop-opacity="0.15"/>
<stop offset="1" stop-color="white" stop-opacity="0"/>
</linearGradient>
<linearGradient id="paint1_linear_292_96" x1="684.611" y1="396.161" x2="684.611" y2="163.173" gradientUnits="userSpaceOnUse">
<stop stop-color="white"/>
<stop offset="0.11" stop-color="white" stop-opacity="0.98"/>
<stop offset="0.24" stop-color="white" stop-opacity="0.93"/>
<stop offset="0.37" stop-color="white" stop-opacity="0.84"/>
<stop offset="0.5" stop-color="white" stop-opacity="0.72"/>
<stop offset="0.64" stop-color="white" stop-opacity="0.56"/>
<stop offset="0.78" stop-color="white" stop-opacity="0.37"/>
<stop offset="0.91" stop-color="white" stop-opacity="0.15"/>
<stop offset="1" stop-color="white" stop-opacity="0"/>
</linearGradient>
<linearGradient id="paint2_linear_292_96" x1="747.22" y1="325.81" x2="747.22" y2="262.836" gradientUnits="userSpaceOnUse">
<stop stop-color="white"/>
<stop offset="0.11" stop-color="white" stop-opacity="0.98"/>
<stop offset="0.24" stop-color="white" stop-opacity="0.93"/>
<stop offset="0.37" stop-color="white" stop-opacity="0.84"/>
<stop offset="0.5" stop-color="white" stop-opacity="0.72"/>
<stop offset="0.64" stop-color="white" stop-opacity="0.56"/>
<stop offset="0.78" stop-color="white" stop-opacity="0.37"/>
<stop offset="0.91" stop-color="white" stop-opacity="0.15"/>
<stop offset="1" stop-color="white" stop-opacity="0"/>
</linearGradient>
<linearGradient id="paint3_linear_292_96" x1="622.3" y1="486.418" x2="622.3" y2="345.581" gradientUnits="userSpaceOnUse">
<stop stop-color="white"/>
<stop offset="0.11" stop-color="white" stop-opacity="0.98"/>
<stop offset="0.24" stop-color="white" stop-opacity="0.93"/>
<stop offset="0.37" stop-color="white" stop-opacity="0.84"/>
<stop offset="0.5" stop-color="white" stop-opacity="0.72"/>
<stop offset="0.64" stop-color="white" stop-opacity="0.56"/>
<stop offset="0.78" stop-color="white" stop-opacity="0.37"/>
<stop offset="0.91" stop-color="white" stop-opacity="0.15"/>
<stop offset="1" stop-color="white" stop-opacity="0"/>
</linearGradient>
<linearGradient id="paint4_linear_292_96" x1="670.453" y1="510.644" x2="670.453" y2="447.237" gradientUnits="userSpaceOnUse">
<stop stop-color="white"/>
<stop offset="0.11" stop-color="white" stop-opacity="0.98"/>
<stop offset="0.24" stop-color="white" stop-opacity="0.93"/>
<stop offset="0.37" stop-color="white" stop-opacity="0.84"/>
<stop offset="0.5" stop-color="white" stop-opacity="0.72"/>
<stop offset="0.64" stop-color="white" stop-opacity="0.56"/>
<stop offset="0.78" stop-color="white" stop-opacity="0.37"/>
<stop offset="0.91" stop-color="white" stop-opacity="0.15"/>
<stop offset="1" stop-color="white" stop-opacity="0"/>
</linearGradient>
<linearGradient id="paint5_linear_292_96" x1="500.306" y1="538.027" x2="500.306" y2="447.104" gradientUnits="userSpaceOnUse">
<stop stop-color="white"/>
<stop offset="0.11" stop-color="white" stop-opacity="0.98"/>
<stop offset="0.24" stop-color="white" stop-opacity="0.93"/>
<stop offset="0.37" stop-color="white" stop-opacity="0.84"/>
<stop offset="0.5" stop-color="white" stop-opacity="0.72"/>
<stop offset="0.64" stop-color="white" stop-opacity="0.56"/>
<stop offset="0.78" stop-color="white" stop-opacity="0.37"/>
<stop offset="0.91" stop-color="white" stop-opacity="0.15"/>
<stop offset="1" stop-color="white" stop-opacity="0"/>
</linearGradient>
<linearGradient id="paint6_linear_292_96" x1="485.618" y1="586.978" x2="485.618" y2="523.372" gradientUnits="userSpaceOnUse">
<stop stop-color="white"/>
<stop offset="0.11" stop-color="white" stop-opacity="0.98"/>
<stop offset="0.24" stop-color="white" stop-opacity="0.93"/>
<stop offset="0.37" stop-color="white" stop-opacity="0.84"/>
<stop offset="0.5" stop-color="white" stop-opacity="0.72"/>
<stop offset="0.64" stop-color="white" stop-opacity="0.56"/>
<stop offset="0.78" stop-color="white" stop-opacity="0.37"/>
<stop offset="0.91" stop-color="white" stop-opacity="0.15"/>
<stop offset="1" stop-color="white" stop-opacity="0"/>
</linearGradient>
<linearGradient id="paint7_linear_292_96" x1="363.956" y1="530.55" x2="363.956" y2="329.995" gradientUnits="userSpaceOnUse">
<stop stop-color="white"/>
<stop offset="0.11" stop-color="white" stop-opacity="0.98"/>
<stop offset="0.24" stop-color="white" stop-opacity="0.93"/>
<stop offset="0.37" stop-color="white" stop-opacity="0.84"/>
<stop offset="0.5" stop-color="white" stop-opacity="0.72"/>
<stop offset="0.64" stop-color="white" stop-opacity="0.56"/>
<stop offset="0.78" stop-color="white" stop-opacity="0.37"/>
<stop offset="0.91" stop-color="white" stop-opacity="0.15"/>
<stop offset="1" stop-color="white" stop-opacity="0"/>
</linearGradient>
<linearGradient id="paint8_linear_292_96" x1="301.014" y1="509.978" x2="301.014" y2="446.838" gradientUnits="userSpaceOnUse">
<stop stop-color="white"/>
<stop offset="0.11" stop-color="white" stop-opacity="0.98"/>
<stop offset="0.24" stop-color="white" stop-opacity="0.93"/>
<stop offset="0.37" stop-color="white" stop-opacity="0.84"/>
<stop offset="0.5" stop-color="white" stop-opacity="0.72"/>
<stop offset="0.64" stop-color="white" stop-opacity="0.56"/>
<stop offset="0.78" stop-color="white" stop-opacity="0.37"/>
<stop offset="0.91" stop-color="white" stop-opacity="0.15"/>
<stop offset="1" stop-color="white" stop-opacity="0"/>
</linearGradient>
<linearGradient id="paint9_linear_292_96" x1="287.39" y1="424.739" x2="287.39" y2="191.784" gradientUnits="userSpaceOnUse">
<stop stop-color="white"/>
<stop offset="0.11" stop-color="white" stop-opacity="0.98"/>
<stop offset="0.24" stop-color="white" stop-opacity="0.93"/>
<stop offset="0.37" stop-color="white" stop-opacity="0.84"/>
<stop offset="0.5" stop-color="white" stop-opacity="0.72"/>
<stop offset="0.64" stop-color="white" stop-opacity="0.56"/>
<stop offset="0.78" stop-color="white" stop-opacity="0.37"/>
<stop offset="0.91" stop-color="white" stop-opacity="0.15"/>
<stop offset="1" stop-color="white" stop-opacity="0"/>
</linearGradient>
<linearGradient id="paint10_linear_292_96" x1="224.781" y1="325.076" x2="224.781" y2="262.102" gradientUnits="userSpaceOnUse">
<stop stop-color="white"/>
<stop offset="0.11" stop-color="white" stop-opacity="0.98"/>
<stop offset="0.24" stop-color="white" stop-opacity="0.93"/>
<stop offset="0.37" stop-color="white" stop-opacity="0.84"/>
<stop offset="0.5" stop-color="white" stop-opacity="0.72"/>
<stop offset="0.64" stop-color="white" stop-opacity="0.56"/>
<stop offset="0.78" stop-color="white" stop-opacity="0.37"/>
<stop offset="0.91" stop-color="white" stop-opacity="0.15"/>
<stop offset="1" stop-color="white" stop-opacity="0"/>
</linearGradient>
<linearGradient id="paint11_linear_292_96" x1="349.699" y1="242.33" x2="349.699" y2="101.527" gradientUnits="userSpaceOnUse">
<stop stop-color="white"/>
<stop offset="0.11" stop-color="white" stop-opacity="0.98"/>
<stop offset="0.24" stop-color="white" stop-opacity="0.93"/>
<stop offset="0.37" stop-color="white" stop-opacity="0.84"/>
<stop offset="0.5" stop-color="white" stop-opacity="0.72"/>
<stop offset="0.64" stop-color="white" stop-opacity="0.56"/>
<stop offset="0.78" stop-color="white" stop-opacity="0.37"/>
<stop offset="0.91" stop-color="white" stop-opacity="0.15"/>
<stop offset="1" stop-color="white" stop-opacity="0"/>
</linearGradient>
<linearGradient id="paint12_linear_292_96" x1="301.546" y1="140.673" x2="301.546" y2="77.3" gradientUnits="userSpaceOnUse">
<stop stop-color="white"/>
<stop offset="0.11" stop-color="white" stop-opacity="0.98"/>
<stop offset="0.24" stop-color="white" stop-opacity="0.93"/>
<stop offset="0.37" stop-color="white" stop-opacity="0.84"/>
<stop offset="0.5" stop-color="white" stop-opacity="0.72"/>
<stop offset="0.64" stop-color="white" stop-opacity="0.56"/>
<stop offset="0.78" stop-color="white" stop-opacity="0.37"/>
<stop offset="0.91" stop-color="white" stop-opacity="0.15"/>
<stop offset="1" stop-color="white" stop-opacity="0"/>
</linearGradient>
<linearGradient id="paint13_linear_292_96" x1="471.694" y1="140.808" x2="471.694" y2="49.8852" gradientUnits="userSpaceOnUse">
<stop stop-color="white"/>
<stop offset="0.11" stop-color="white" stop-opacity="0.98"/>
<stop offset="0.24" stop-color="white" stop-opacity="0.93"/>
<stop offset="0.37" stop-color="white" stop-opacity="0.84"/>
<stop offset="0.5" stop-color="white" stop-opacity="0.72"/>
<stop offset="0.64" stop-color="white" stop-opacity="0.56"/>
<stop offset="0.78" stop-color="white" stop-opacity="0.37"/>
<stop offset="0.91" stop-color="white" stop-opacity="0.15"/>
<stop offset="1" stop-color="white" stop-opacity="0"/>
</linearGradient>
<linearGradient id="paint14_linear_292_96" x1="486.349" y1="64.5731" x2="486.349" y2="0.934092" gradientUnits="userSpaceOnUse">
<stop stop-color="white"/>
<stop offset="0.11" stop-color="white" stop-opacity="0.98"/>
<stop offset="0.24" stop-color="white" stop-opacity="0.93"/>
<stop offset="0.37" stop-color="white" stop-opacity="0.84"/>
<stop offset="0.5" stop-color="white" stop-opacity="0.72"/>
<stop offset="0.64" stop-color="white" stop-opacity="0.56"/>
<stop offset="0.78" stop-color="white" stop-opacity="0.37"/>
<stop offset="0.91" stop-color="white" stop-opacity="0.15"/>
<stop offset="1" stop-color="white" stop-opacity="0"/>
</linearGradient>
<linearGradient id="paint15_linear_292_96" x1="608.044" y1="257.948" x2="608.044" y2="57.3939" gradientUnits="userSpaceOnUse">
<stop stop-color="white"/>
<stop offset="0.11" stop-color="white" stop-opacity="0.98"/>
<stop offset="0.24" stop-color="white" stop-opacity="0.93"/>
<stop offset="0.37" stop-color="white" stop-opacity="0.84"/>
<stop offset="0.5" stop-color="white" stop-opacity="0.72"/>
<stop offset="0.64" stop-color="white" stop-opacity="0.56"/>
<stop offset="0.78" stop-color="white" stop-opacity="0.37"/>
<stop offset="0.91" stop-color="white" stop-opacity="0.15"/>
<stop offset="1" stop-color="white" stop-opacity="0"/>
</linearGradient>
<linearGradient id="paint16_linear_292_96" x1="670.952" y1="141.105" x2="670.952" y2="77.931" gradientUnits="userSpaceOnUse">
<stop stop-color="white"/>
<stop offset="0.11" stop-color="white" stop-opacity="0.98"/>
<stop offset="0.24" stop-color="white" stop-opacity="0.93"/>
<stop offset="0.37" stop-color="white" stop-opacity="0.84"/>
<stop offset="0.5" stop-color="white" stop-opacity="0.72"/>
<stop offset="0.64" stop-color="white" stop-opacity="0.56"/>
<stop offset="0.78" stop-color="white" stop-opacity="0.37"/>
<stop offset="0.91" stop-color="white" stop-opacity="0.15"/>
<stop offset="1" stop-color="white" stop-opacity="0"/>
</linearGradient>
</defs>
</svg>
